<?xml version="1.0" encoding="utf-8"?>
<!-- Generator: Adobe Illustrator 17.0.0, SVG Export Plug-In . SVG Version: 6.00 Build 0)  -->
<!DOCTYPE svg PUBLIC "-//W3C//DTD SVG 1.1//EN" "http://www.w3.org/Graphics/SVG/1.1/DTD/svg11.dtd">
<svg version="1.1" id="Layer_1" xmlns="http://www.w3.org/2000/svg" xmlns:xlink="http://www.w3.org/1999/xlink" x="0px" y="0px"
	 width="200px" height="200px" viewBox="0 0 200 200" enable-background="new 0 0 200 200" xml:space="preserve">
<g>
	<path id="path3165_1_" d="M100.01,0.451c-0.43,0-0.86-0.01-1.29,0c-54.36,0.69-98.27,45.03-98.27,99.56
		c0,54.96,44.6,99.57,99.56,99.57c54.96,0,99.57-44.61,99.57-99.57C199.58,45.051,154.97,0.451,100.01,0.451z M73.62,160.801H49.76
		v-103H34.63v-11.93l20.19-7.11h18.8V160.801z M156.67,94.051l-41.52,34.64v10.32h41.52v21.79H91.06v-42.67l41.99-35.32v-23.18
		h-17.67v15.83H91.06v-23.86L103,38.761h41.06l12.61,12.84V94.051z"/>
	<path opacity="0.5" fill="#FFFFFF" d="M115.15,128.691v10.32h41.52v21.79H91.06v-42.67l41.99-35.32v-23.18h-17.67v15.83H91.06
		v-23.86L103,38.761h41.06l12.61,12.84v42.45L115.15,128.691z M54.82,38.761l-20.19,7.11v11.93h15.13v103h23.86V38.761H54.82z"/>
</g>
</svg>
