<?xml version="1.0" encoding="utf-8"?>
<!-- Generator: Adobe Illustrator 17.0.0, SVG Export Plug-In . SVG Version: 6.00 Build 0)  -->
<!DOCTYPE svg PUBLIC "-//W3C//DTD SVG 1.1//EN" "http://www.w3.org/Graphics/SVG/1.1/DTD/svg11.dtd">
<svg version="1.1" id="Layer_1" xmlns="http://www.w3.org/2000/svg" xmlns:xlink="http://www.w3.org/1999/xlink" x="0px" y="0px"
	 width="200px" height="200px" viewBox="0 0 200 200" enable-background="new 0 0 200 200" xml:space="preserve">
<g>
	<path id="path3323_1_" d="M117.005,105.423v31.48h17.17v-31.48H117.005z M117.005,105.423v31.48h17.17v-31.48H117.005z
		 M100.015,0.423h-0.65c-54.68,0.35-98.94,44.83-98.94,99.59c0,54.98,44.61,99.59,99.59,99.59c54.97,0,99.59-44.61,99.59-99.59
		C199.605,45.043,154.985,0.423,100.015,0.423z M74.915,157.103h-23.26V56.643h-14.76v-11.63l19.69-6.94h18.33V157.103z
		 M157.795,73.063h-23.62v-15.17h-17.17v34.64l7-7.01h20.76l13.03,12.81v46.3l-12.35,12.47h-39.32l-12.32-12.47v-93.47l12.03-13.09
		h39.5l12.46,13.09V73.063z M117.005,136.903h17.17v-31.48h-17.17V136.903z M117.005,105.423v31.48h17.17v-31.48H117.005z
		 M117.005,105.423v31.48h17.17v-31.48H117.005z"/>
	<polygon opacity="0.5" fill="#FFFFFF" points="74.915,38.073 74.915,157.103 51.655,157.103 51.655,56.643 36.895,56.643 
		36.895,45.013 56.585,38.073 	"/>
	<path opacity="0.5" fill="#FFFFFF" d="M157.795,73.063v-21.9l-12.46-13.09h-39.5l-12.03,13.09v93.47l12.32,12.47h39.32l12.35-12.47
		v-46.3l-13.03-12.81h-20.76l-7,7.01v-34.64h17.17v15.17H157.795z M134.175,105.423v31.48h-17.17v-31.48H134.175z"/>
</g>
</svg>
