<?xml version="1.0" encoding="utf-8"?>
<!-- Generator: Adobe Illustrator 17.0.0, SVG Export Plug-In . SVG Version: 6.00 Build 0)  -->
<!DOCTYPE svg PUBLIC "-//W3C//DTD SVG 1.1//EN" "http://www.w3.org/Graphics/SVG/1.1/DTD/svg11.dtd">
<svg version="1.1" id="Layer_1" xmlns="http://www.w3.org/2000/svg" xmlns:xlink="http://www.w3.org/1999/xlink" x="0px" y="0px"
	 width="200px" height="200px" viewBox="0 0 200 200" enable-background="new 0 0 200 200" xml:space="preserve">
<g>
	<path id="path2502_1_" d="M91.319,108.383v32.8h17.45v-32.8H91.319z M91.319,108.383v32.8h17.45v-32.8H91.319z M100.019,0.423
		h-0.65c-54.68,0.34-98.94,44.83-98.94,99.59c0,54.98,44.61,99.6,99.59,99.6s99.59-44.62,99.59-99.6
		C199.609,45.043,154.999,0.423,100.019,0.423z M132.629,75.573h-23.86v-15.94h-17.45v35.5l6.77-6.77h21.52l13.02,12.87v48.38
		l-12.3,12.15h-40.9l-11.94-12.15v-98.19l11.94-12.41h40.78l12.42,12.41V75.573z M91.319,141.183h17.45v-32.8h-17.45V141.183z"/>
	<path opacity="0.5" fill="#FFFFFF" d="M132.629,75.573v-24.15l-12.42-12.41h-40.78l-11.94,12.41v98.19l11.94,12.15h40.9l12.3-12.15
		v-48.38l-13.02-12.87h-21.52l-6.77,6.77v-35.5h17.45v15.94H132.629z M108.769,108.383v32.8h-17.45v-32.8H108.769z"/>
</g>
</svg>
