<?xml version="1.0" encoding="utf-8"?>
<!-- Generator: Adobe Illustrator 17.0.0, SVG Export Plug-In . SVG Version: 6.00 Build 0)  -->
<!DOCTYPE svg PUBLIC "-//W3C//DTD SVG 1.1//EN" "http://www.w3.org/Graphics/SVG/1.1/DTD/svg11.dtd">
<svg version="1.1" id="Layer_1" xmlns="http://www.w3.org/2000/svg" xmlns:xlink="http://www.w3.org/1999/xlink" x="0px" y="0px"
	 width="200px" height="200px" viewBox="0 0 200 200" enable-background="new 0 0 200 200" xml:space="preserve">
<g>
	<path id="path1364" d="M61.85,59.773v46.05H77.2v-46.05H61.85z M61.85,59.773v46.05H77.2v-46.05H61.85z M100.02,0.433h-0.65
		c-54.67,0.35-98.93,44.83-98.93,99.59c0,54.96,44.61,99.57,99.58,99.57c54.97,0,99.57-44.61,99.57-99.57
		C199.59,45.053,154.99,0.433,100.02,0.433z M98.77,156.863H77.2v-31.54H61.85v31.54H40.27V51.883l12.03-12.44h35.27l11.2,12.44
		V156.863z M156.44,156.863h-40.66V39.443h21.57v99.58h19.09V156.863z M61.85,105.823H77.2v-46.05H61.85V105.823z M61.85,59.773
		v46.05H77.2v-46.05H61.85z M61.85,59.773v46.05H77.2v-46.05H61.85z"/>
	<polygon opacity="0.6" fill="#FFFFFF" points="156.44,139.023 156.44,156.863 115.78,156.863 115.78,39.443 137.35,39.443 
		137.35,139.023 	"/>
	<path opacity="0.6" fill="#FFFFFF" d="M87.57,39.443H52.3l-12.03,12.44v104.98h21.58v-31.54H77.2v31.54h21.57V51.883L87.57,39.443z
		 M77.2,105.823H61.85v-46.05H77.2V105.823z"/>
</g>
</svg>
