<?xml version="1.0" encoding="utf-8"?>
<!-- Generator: Adobe Illustrator 17.0.0, SVG Export Plug-In . SVG Version: 6.00 Build 0)  -->
<!DOCTYPE svg PUBLIC "-//W3C//DTD SVG 1.1//EN" "http://www.w3.org/Graphics/SVG/1.1/DTD/svg11.dtd">
<svg version="1.1" id="Layer_1" xmlns="http://www.w3.org/2000/svg" xmlns:xlink="http://www.w3.org/1999/xlink" x="0px" y="0px"
	 width="200px" height="200px" viewBox="0 0 200 200" enable-background="new 0 0 200 200" xml:space="preserve">
<g>
	<path id="path3080_1_" d="M100.02,0.394h-0.65c-54.7,0.34-98.98,44.84-98.98,99.62c0,54.99,44.64,99.63,99.63,99.63
		s99.62-44.64,99.62-99.63S155.01,0.394,100.02,0.394z M116.88,178.464c-4.25,0.56-8.98,0.98-14.28,1.24
		c-0.9,0.05-1.79,0.08-2.67,0.11c7.72-16.18,13.31-27.79,16.16-28.04h0.12C119.63,151.884,118.54,163.994,116.88,178.464z
		 M164.07,148.264c-10.48,14.09-16.62,24.46-40.42,29.1c3.64-12.34,7.63-26.62,8.28-39.2c0.99-18.95-4.28-29.1-9.11-33.82
		c-6.18-6.03-12.47-0.97-15.17-2.24c-2.38-1.12-4.53-16.84-12.76-26.53c-1.16-1.36-2.61-1.89-4.17-1.81
		c-5.59,0.26-12.6,8.23-12.39,13.74c0.46,11.77,21.33,16.99,22.31,19.93c0.51,1.51-4.71,4.6-5.75,9.83
		c-0.84,4.21,3.09,8.41,5.61,22.58c1.91,10.67-2.79,27.63-6.97,39.97c-35.45-1.05-48.55-19.77-56.6-33.79
		c-8.7-15.15-9.52-28.55-6.03-39.71c2.81-8.99,12.44-7.54,11.93-13.9c-0.51-6.3-15.59-26.37-11.38-32.83
		c4.21-6.46,15.83-8.82,21.06-1.27c5.05,7.3-2.46,30.94-0.57,32.84c1.72,1.72,10.81-0.98,10.81-0.98s-0.9-13.1,2.52-18.25
		c3.93-5.89,14.89-9.26,14.89-11.78c0-2.53-14.15-26.11-8.28-34.11c2.26-3.08,6.42-4.64,10.64-4.72h0.2
		c5.01-0.05,10.06,1.98,12.03,5.99c4.37,8.91-7.02,29.75-3.94,33.4c3.09,3.65,11.57,3.99,14.6,7.85c3.09,3.93,3.93,7.87,3.93,7.87
		s9.82-1.4,10.38-4.77c0.56-3.37-8.38-28.76-3.92-36.77c3.27-5.87,20.91-5.47,23.86,4.49c2.76,9.35-11.59,28.97-10.53,34.1
		c1.1,5.3,6.74,4.24,10.8,9.4c6.74,8.56,5.47,20.21,5.47,20.21s6.91-0.73,7.59-3.23c0.98-3.65-6.6-28.35,0.14-34.24
		c5.84-5.11,16.7-5.47,20.06,1.83c3.37,7.29-12.77,31.99-11.09,35.08c1.69,3.08,9.54,4.07,11.79,9.68
		C176.14,117.824,176.81,131.144,164.07,148.264z"/>
	<path opacity="0.5" fill="#FFFFFF" d="M116.88,178.464c-4.25,0.56-8.98,0.98-14.28,1.24c-0.9,0.05-1.79,0.08-2.67,0.11
		c7.72-16.18,13.31-27.79,16.16-28.04h0.12C119.63,151.884,118.54,163.994,116.88,178.464z"/>
	<path opacity="0.5" fill="#FFFFFF" d="M164.07,148.264c-10.48,14.09-16.62,24.46-40.42,29.1c3.64-12.34,7.63-26.62,8.28-39.2
		c0.99-18.95-4.28-29.1-9.11-33.82c-6.18-6.03-12.47-0.97-15.17-2.24c-2.38-1.12-4.53-16.84-12.76-26.53
		c-1.16-1.36-2.61-1.89-4.17-1.81c-5.59,0.26-12.6,8.23-12.39,13.74c0.46,11.77,21.33,16.99,22.31,19.93
		c0.51,1.51-4.71,4.6-5.75,9.83c-0.84,4.21,3.09,8.41,5.61,22.58c1.91,10.67-2.79,27.63-6.97,39.97
		c-35.45-1.05-48.55-19.77-56.6-33.79c-8.7-15.15-9.52-28.55-6.03-39.71c2.81-8.99,12.44-7.54,11.93-13.9
		c-0.51-6.3-15.59-26.37-11.38-32.83c4.21-6.46,15.83-8.82,21.06-1.27c5.05,7.3-2.46,30.94-0.57,32.84
		c1.72,1.72,10.81-0.98,10.81-0.98s-0.9-13.1,2.52-18.25c3.93-5.89,14.89-9.26,14.89-11.78c0-2.53-14.15-26.11-8.28-34.11
		c2.26-3.08,6.42-4.64,10.64-4.72h0.2c5.01-0.05,10.06,1.98,12.03,5.99c4.37,8.91-7.02,29.75-3.94,33.4
		c3.09,3.65,11.57,3.99,14.6,7.85c3.09,3.93,3.93,7.87,3.93,7.87s9.82-1.4,10.38-4.77c0.56-3.37-8.38-28.76-3.92-36.77
		c3.27-5.87,20.91-5.47,23.86,4.49c2.76,9.35-11.59,28.97-10.53,34.1c1.1,5.3,6.74,4.24,10.8,9.4c6.74,8.56,5.47,20.21,5.47,20.21
		s6.91-0.73,7.59-3.23c0.98-3.65-6.6-28.35,0.14-34.24c5.84-5.11,16.7-5.47,20.06,1.83c3.37,7.29-12.77,31.99-11.09,35.08
		c1.69,3.08,9.54,4.07,11.79,9.68C176.14,117.824,176.81,131.144,164.07,148.264z"/>
</g>
</svg>
