<?xml version="1.0" encoding="utf-8"?>
<!-- Generator: Adobe Illustrator 17.0.0, SVG Export Plug-In . SVG Version: 6.00 Build 0)  -->
<!DOCTYPE svg PUBLIC "-//W3C//DTD SVG 1.1//EN" "http://www.w3.org/Graphics/SVG/1.1/DTD/svg11.dtd">
<svg version="1.1" id="Layer_1" xmlns="http://www.w3.org/2000/svg" xmlns:xlink="http://www.w3.org/1999/xlink" x="0px" y="0px"
	 width="200px" height="200px" viewBox="0 0 200 200" enable-background="new 0 0 200 200" xml:space="preserve">
<g>
	<path id="path2999_1_" d="M85.46,109.541c-3.18-2.1-6.91-3.01-9.93-3.01h-0.39c-2.69,0.08-4.75,0.92-5.21,2.3
		c-0.84,2.52,4.38,0.71,8.75,3.95c4.06,3.02,7.58,7.18,9.04,5.37C89.09,116.441,90.25,113.211,85.46,109.541z M100.83,91.761
		c-2.8-1.98-8.34-3.1-12.49-3.06h-0.15c-0.05,0-0.1,0.01-0.15,0.01c-2.81,0.06-4.93,0.67-4.99,1.92c-0.14,2.96,5.65,2.97,9.6,5.36
		c3.95,2.4,9.59,7.06,11.43,6.78C105.91,102.481,108.45,97.401,100.83,91.761z M114.24,75.541c-2.69-2.04-8.17-3.05-11.85-2.98
		h-0.27c-1.8,0.06-3.13,0.4-3.4,1c-0.85,1.83,4.07,3.75,7.19,5.79c3.8,2.47,9.18,5.92,11.01,4.23
		C118.32,82.291,119.32,79.771,114.24,75.541z M114.24,75.541c-2.69-2.04-8.17-3.05-11.85-2.98h-0.27c-1.8,0.06-3.13,0.4-3.4,1
		c-0.85,1.83,4.07,3.75,7.19,5.79c3.8,2.47,9.18,5.92,11.01,4.23C118.32,82.291,119.32,79.771,114.24,75.541z M100.83,91.761
		c-2.8-1.98-8.34-3.1-12.49-3.06h-0.15c-0.05,0-0.1,0.01-0.15,0.01c-2.81,0.06-4.93,0.67-4.99,1.92c-0.14,2.96,5.65,2.97,9.6,5.36
		c3.95,2.4,9.59,7.06,11.43,6.78C105.91,102.481,108.45,97.401,100.83,91.761z M85.46,109.541c-3.18-2.1-6.91-3.01-9.93-3.01h-0.39
		c-2.69,0.08-4.75,0.92-5.21,2.3c-0.84,2.52,4.38,0.71,8.75,3.95c4.06,3.02,7.58,7.18,9.04,5.37
		C89.09,116.441,90.25,113.211,85.46,109.541z M100.02,0.451h-0.65c-54.66,0.35-98.92,44.82-98.92,99.57
		c0,54.96,44.61,99.56,99.57,99.56c54.96,0,99.56-44.6,99.56-99.56C199.58,45.061,154.98,0.451,100.02,0.451z M166.61,60.021
		c-1.99,3.5-9.28,0.5-18.26-2.59l0.02,0.03c-0.25-0.11-4.41-1.96-5.91-1.82c-1.55,0.14-6.63,3.11-5.93,7.05
		c0.47,2.65,7.62,10.16,11.01,13.4c3.38,3.25,15.8,16.37,13.26,20.46c-2.54,4.09-13.97-3.38-20.18-6.06
		c-6.2-2.68-7.19,0.84-9.17,2.96c-1.97,2.12-30.9,36.4-33.58,39.51c-2.68,3.1-4.94,5.07-9.17,7.89c-4.23,2.83-11.99,0.57-13.12,0.57
		c-1.13,0-4.4,2.96-6.35,3.1c-1.56,0.12-4.2,0.42-7.08-0.3l-20.29,17.09l14.73-20.11c-2.59-2.84-2.45-7.01-0.77-9.65
		c1.98-3.11,2.12-7.48,2.12-12.56c0-5.08,2.55-8.89,4.24-10.86c1.69-1.98,31.88-37.39,33.72-39.37c1.83-1.97,2.82-3.53,2.96-6.07
		c0.14-2.54-12.14-18.76-8.61-22.15c3.53-3.38,29.77,12,34.57,14.54c4.8,2.54,7.34-0.57,9.03-2.55c1.7-1.97,0-4.51-2.75-9.87
		c-3.9-6.88-7.19-12.56-4.99-15.16c0.39-0.46,1.04-0.73,1.89-0.78h0.17c4.78-0.14,15.62,5.56,25.38,14.65
		C165.12,52.141,168.12,57.381,166.61,60.021z M114.24,75.541c-2.69-2.04-8.17-3.05-11.85-2.98h-0.27c-1.8,0.06-3.13,0.4-3.4,1
		c-0.85,1.83,4.07,3.75,7.19,5.79c3.8,2.47,9.18,5.92,11.01,4.23C118.32,82.291,119.32,79.771,114.24,75.541z M100.83,91.761
		c-2.8-1.98-8.34-3.1-12.49-3.06h-0.15c-0.05,0-0.1,0.01-0.15,0.01c-2.81,0.06-4.93,0.67-4.99,1.92c-0.14,2.96,5.65,2.97,9.6,5.36
		c3.95,2.4,9.59,7.06,11.43,6.78C105.91,102.481,108.45,97.401,100.83,91.761z M85.46,109.541c-3.18-2.1-6.91-3.01-9.93-3.01h-0.39
		c-2.69,0.08-4.75,0.92-5.21,2.3c-0.84,2.52,4.38,0.71,8.75,3.95c4.06,3.02,7.58,7.18,9.04,5.37
		C89.09,116.441,90.25,113.211,85.46,109.541z"/>
	<path opacity="0.5" fill="#FFFFFF" d="M153.55,41.371c-9.76-9.09-20.6-14.79-25.38-14.65H128c-0.85,0.05-1.5,0.32-1.89,0.78
		c-2.2,2.6,1.09,8.28,4.99,15.16c2.75,5.36,4.45,7.9,2.75,9.87c-1.69,1.98-4.23,5.09-9.03,2.55c-4.8-2.54-31.04-17.92-34.57-14.54
		c-3.53,3.39,8.75,19.61,8.61,22.15c-0.14,2.54-1.13,4.1-2.96,6.07c-1.84,1.98-32.03,37.39-33.72,39.37
		c-1.69,1.97-4.24,5.78-4.24,10.86c0,5.08-0.14,9.45-2.12,12.56c-1.68,2.64-1.82,6.81,0.77,9.65l-14.73,20.11l20.29-17.09
		c2.88,0.72,5.52,0.42,7.08,0.3c1.95-0.14,5.22-3.1,6.35-3.1c1.13,0,8.89,2.26,13.12-0.57c4.23-2.82,6.49-4.79,9.17-7.89
		c2.68-3.11,31.61-37.39,33.58-39.51c1.98-2.12,2.97-5.64,9.17-2.96c6.21,2.68,17.64,10.15,20.18,6.06
		c2.54-4.09-9.88-17.21-13.26-20.46c-3.39-3.24-10.54-10.75-11.01-13.4c-0.7-3.94,4.38-6.91,5.93-7.05c1.5-0.14,5.66,1.71,5.91,1.82
		l-0.02-0.03c8.98,3.09,16.27,6.09,18.26,2.59C168.12,57.381,165.12,52.141,153.55,41.371z M87.72,118.151
		c-1.46,1.81-4.98-2.35-9.04-5.37c-4.37-3.24-9.59-1.43-8.75-3.95c0.46-1.38,2.52-2.22,5.21-2.3h0.39c3.02,0,6.75,0.91,9.93,3.01
		C90.25,113.211,89.09,116.441,87.72,118.151z M104.08,102.771c-1.84,0.28-7.48-4.38-11.43-6.78c-3.95-2.39-9.74-2.4-9.6-5.36
		c0.06-1.25,2.18-1.86,4.99-1.92c0.05,0,0.1-0.01,0.15-0.01h0.15c4.15-0.04,9.69,1.08,12.49,3.06
		C108.45,97.401,105.91,102.481,104.08,102.771z M116.92,83.581c-1.83,1.69-7.21-1.76-11.01-4.23c-3.12-2.04-8.04-3.96-7.19-5.79
		c0.27-0.6,1.6-0.94,3.4-1h0.27c3.68-0.07,9.16,0.94,11.85,2.98C119.32,79.771,118.32,82.291,116.92,83.581z"/>
</g>
</svg>
