<?xml version="1.0" encoding="utf-8"?>
<!-- Generator: Adobe Illustrator 17.0.0, SVG Export Plug-In . SVG Version: 6.00 Build 0)  -->
<!DOCTYPE svg PUBLIC "-//W3C//DTD SVG 1.1//EN" "http://www.w3.org/Graphics/SVG/1.1/DTD/svg11.dtd">
<svg version="1.1" id="Layer_1" xmlns="http://www.w3.org/2000/svg" xmlns:xlink="http://www.w3.org/1999/xlink" x="0px" y="0px"
	 width="200px" height="200px" viewBox="0 0 200 200" enable-background="new 0 0 200 200" xml:space="preserve">
<g>
	<path id="path3183_1_" d="M100.01,0.403h-0.64C44.68,0.753,0.4,45.243,0.4,100.013c0,54.99,44.63,99.61,99.61,99.61
		s99.62-44.62,99.62-99.61C199.63,45.033,154.99,0.403,100.01,0.403z M144.4,109.033c-3.95,1.02-34.71,0.19-34.86,2.27
		c-0.15,2.07,21.3,4.83,27.46,6.57c5.16,1.45,19.8,10.9,22.04,14.63c2.61,4.35,5.06,22.9,2.6,27.25s-6.52,6.23-7.82,2.89
		c-1.3-3.33-4.35-24.2-5.51-25.94c-1.16-1.73-10.73-9.56-15.37-11.73c-4.64-2.18-24.46-8.88-25.14-7.25
		c-0.53,1.3,18.81,13.11,21.66,17.68c2.9,4.64,5.51,16.37,5.22,21.74c-0.29,5.38-10.11,21.3-13.91,23.33
		c-4.06,2.18-6.93,1.75-6.37-2.89c0.48-4.05,7.67-18.41,8.11-21.6c0.41-3.02-0.06-13.82-1.45-17.03
		c-1.42-3.28-11.71-14.84-13.58-14.38c-1.42,0.34,0.83,12.35-2,12.35c-2.81,0-2.63-12.51-5.47-12.61
		c-2.58,0.1-2.65,12.61-5.46,12.61c-2.83,0-0.58-12.01-2-12.35c-1.88-0.46-12.16,11.1-13.58,14.38c-1.39,3.21-1.86,14.01-1.45,17.03
		c0.44,3.19,7.63,17.55,8.11,21.6c0.55,4.64-2.31,5.07-6.37,2.89c-3.8-2.03-13.62-17.95-13.91-23.33
		c-0.29-5.37,2.32-17.1,5.21-21.74c2.86-4.57,22.2-16.38,21.66-17.68c-0.67-1.63-20.5,5.07-25.13,7.25
		c-4.64,2.17-14.21,10-15.37,11.73c-1.16,1.74-4.21,22.61-5.51,25.94c-1.31,3.34-5.36,1.46-7.82-2.89
		c-2.47-4.35-0.01-22.9,2.6-27.25c2.24-3.73,16.87-13.18,22.04-14.63c6.16-1.74,27.6-4.5,27.46-6.57
		c-0.15-2.08-30.91-1.25-34.86-2.27c-3.91-1.02-25.1-10.73-27.39-13.63c-2.17-2.75-6.23-16.22-6.09-24.49
		c0.15-8.26,3.92-14.78,5.07-17.39c0.58-1.29,1.08-1.78,1.53-1.76c0.01,0,0.01,0,0.01,0h0.05c0.43,0.04,0.82,0.55,1.17,1.18
		c0.73,1.3,6.58,32.23,8.26,34.93c2.18,3.47,15.38,12.23,20.51,13.69c5.36,1.52,32.85,4.67,33.05,2.75
		c0.21-2.05-28.99-8.84-33.85-13.4c-4.89-4.6-10.14-29.56-8.55-37.39c1.6-7.82,14.62-26.37,19.13-30.14
		c3.97-3.32,9.22-4.97,11.73-5.09c0.02-0.01,0.04,0,0.06,0c0.14-0.01,0.27-0.01,0.4,0h0.11c0.01,0.01,0.01,0.01,0.01,0.01h0.01
		c2.18,0.15,1.74,1.45,1.45,3.19c-0.29,1.74-19.13,31.88-20.43,35.65c-1.31,3.76,1.14,25.26,2.89,27.61
		c1.42,1.9,29.44,15.38,30.06,13.55c0.62-1.83-17.96-16.39-17.67-22.8c0.26-5.79,4.04-16.84,8.67-23.51
		c4.56-6.54,10.04-12.31,14.08-12.79h0.23c4.04,0.49,9.52,6.25,14.07,12.79c4.64,6.67,8.42,17.72,8.68,23.51
		c0.29,6.41-18.3,20.97-17.68,22.8c0.62,1.83,28.65-11.65,30.06-13.55c1.75-2.35,4.2-23.85,2.9-27.61
		c-1.3-3.77-20.14-33.91-20.43-35.65c-0.29-1.74-0.73-3.04,1.45-3.19c0.01,0,0.01,0,0.01-0.01h0.12c2.27-0.08,7.96,1.55,12.18,5.09
		c4.52,3.77,17.54,22.32,19.13,30.14c1.6,7.83-3.65,32.79-8.55,37.39c-4.85,4.56-34.05,11.35-33.84,13.4
		c0.2,1.92,27.69-1.23,33.05-2.75c5.13-1.46,18.33-10.22,20.51-13.69c1.68-2.7,7.53-33.63,8.26-34.93c0.35-0.63,0.73-1.14,1.17-1.18
		h0.08c0.44,0,0.94,0.5,1.5,1.76c1.16,2.61,4.93,9.13,5.08,17.39c0.14,8.27-3.92,21.74-6.1,24.49
		C169.49,98.303,148.31,108.013,144.4,109.033z"/>
	<path opacity="0.5" fill="#FFFFFF" d="M171.78,95.403c-2.29,2.9-23.47,12.61-27.38,13.63c-3.95,1.02-34.71,0.19-34.86,2.27
		c-0.15,2.07,21.3,4.83,27.46,6.57c5.16,1.45,19.8,10.9,22.04,14.63c2.61,4.35,5.06,22.9,2.6,27.25s-6.52,6.23-7.82,2.89
		c-1.3-3.33-4.35-24.2-5.51-25.94c-1.16-1.73-10.73-9.56-15.37-11.73c-4.64-2.18-24.46-8.88-25.14-7.25
		c-0.53,1.3,18.81,13.11,21.66,17.68c2.9,4.64,5.51,16.37,5.22,21.74c-0.29,5.38-10.11,21.3-13.91,23.33
		c-4.06,2.18-6.93,1.75-6.37-2.89c0.48-4.05,7.67-18.41,8.11-21.6c0.41-3.02-0.06-13.82-1.45-17.03
		c-1.42-3.28-11.71-14.84-13.58-14.38c-1.42,0.34,0.83,12.35-2,12.35c-2.81,0-2.63-12.51-5.47-12.61
		c-2.58,0.1-2.65,12.61-5.46,12.61c-2.83,0-0.58-12.01-2-12.35c-1.88-0.46-12.16,11.1-13.58,14.38c-1.39,3.21-1.86,14.01-1.45,17.03
		c0.44,3.19,7.63,17.55,8.11,21.6c0.55,4.64-2.31,5.07-6.37,2.89c-3.8-2.03-13.62-17.95-13.91-23.33
		c-0.29-5.37,2.32-17.1,5.21-21.74c2.86-4.57,22.2-16.38,21.66-17.68c-0.67-1.63-20.5,5.07-25.13,7.25
		c-4.64,2.17-14.21,10-15.37,11.73c-1.16,1.74-4.21,22.61-5.51,25.94c-1.31,3.34-5.36,1.46-7.82-2.89
		c-2.47-4.35-0.01-22.9,2.6-27.25c2.24-3.73,16.87-13.18,22.04-14.63c6.16-1.74,27.6-4.5,27.46-6.57
		c-0.15-2.08-30.91-1.25-34.86-2.27c-3.91-1.02-25.1-10.73-27.39-13.63c-2.17-2.75-6.23-16.22-6.09-24.49
		c0.15-8.26,3.92-14.78,5.07-17.39c0.58-1.29,1.08-1.78,1.53-1.76c0.01,0,0.01,0,0.01,0h0.05c0.43,0.04,0.82,0.55,1.17,1.18
		c0.73,1.3,6.58,32.23,8.26,34.93c2.18,3.47,15.38,12.23,20.51,13.69c5.36,1.52,32.85,4.67,33.05,2.75
		c0.21-2.05-28.99-8.84-33.85-13.4c-4.89-4.6-10.14-29.56-8.55-37.39c1.6-7.82,14.62-26.37,19.13-30.14
		c3.97-3.32,9.22-4.97,11.73-5.09c0.02-0.01,0.04,0,0.06,0c0.14-0.01,0.27-0.01,0.4,0h0.11c0.01,0.01,0.01,0.01,0.01,0.01h0.01
		c2.18,0.15,1.74,1.45,1.45,3.19c-0.29,1.74-19.13,31.88-20.43,35.65c-1.31,3.76,1.14,25.26,2.89,27.61
		c1.42,1.9,29.44,15.38,30.06,13.55c0.62-1.83-17.96-16.39-17.67-22.8c0.26-5.79,4.04-16.84,8.67-23.51
		c4.56-6.54,10.04-12.31,14.08-12.79h0.23c4.04,0.49,9.52,6.25,14.07,12.79c4.64,6.67,8.42,17.72,8.68,23.51
		c0.29,6.41-18.3,20.97-17.68,22.8c0.62,1.83,28.65-11.65,30.06-13.55c1.75-2.35,4.2-23.85,2.9-27.61
		c-1.3-3.77-20.14-33.91-20.43-35.65c-0.29-1.74-0.73-3.04,1.45-3.19c0.01,0,0.01,0,0.01-0.01h0.12c2.27-0.08,7.96,1.55,12.18,5.09
		c4.52,3.77,17.54,22.32,19.13,30.14c1.6,7.83-3.65,32.79-8.55,37.39c-4.85,4.56-34.05,11.35-33.84,13.4
		c0.2,1.92,27.69-1.23,33.05-2.75c5.13-1.46,18.33-10.22,20.51-13.69c1.68-2.7,7.53-33.63,8.26-34.93c0.35-0.63,0.73-1.14,1.17-1.18
		h0.08c0.44,0,0.94,0.5,1.5,1.76c1.16,2.61,4.93,9.13,5.08,17.39C178.02,79.183,173.96,92.653,171.78,95.403z"/>
</g>
</svg>
