<?xml version="1.0" encoding="utf-8"?>
<!-- Generator: Adobe Illustrator 17.0.0, SVG Export Plug-In . SVG Version: 6.00 Build 0)  -->
<!DOCTYPE svg PUBLIC "-//W3C//DTD SVG 1.1//EN" "http://www.w3.org/Graphics/SVG/1.1/DTD/svg11.dtd">
<svg version="1.1" id="Layer_1" xmlns="http://www.w3.org/2000/svg" xmlns:xlink="http://www.w3.org/1999/xlink" x="0px" y="0px"
	 width="200px" height="200px" viewBox="0 0 200 200" enable-background="new 0 0 200 200" xml:space="preserve">
<g>
	<path id="path2297_1_" d="M100.014,0.431c-0.22,0-0.43-0.01-0.64,0c-54.68,0.34-98.94,44.83-98.94,99.58
		c0,54.98,44.6,99.59,99.58,99.59c54.97,0,99.58-44.61,99.58-99.59C199.594,45.041,154.984,0.431,100.014,0.431z M65.395,167.741
		c-5.68-3.21-15.19-14.13-9.92-29.11c-1.68,0.84-22.15,4-30.59-9.29c-8.44-13.29-3.49-35.78,8.65-47.05
		c5.15-4.78,10.76-6.74,16.43-6.83c0.14-0.01,0.28,0,0.42,0c8.77-0.01,17.65,4.37,25.13,9.58c12.45,8.65,24.06,20.46,18.99,27.64
		c-5.06,7.17-22.78,0.63-30.59-3.8c-7.81-4.43-13.5-12.24-15.82-13.3c-2.32-1.05-5.27,5.07-5.06,8.45
		c0.21,3.37,9.91,12.45,22.15,16.03c-0.43,14.35,12.44,21.31,24.05,17.93c-8.23,15.19,0.63,24.06,10.33,24.27
		C90.074,174.921,71.084,170.961,65.395,167.741z M100.354,99.821c-1.88-3.43-4.24-6.46-6.91-9.22c5.14-3.62,9.65-5.53,13.63-5.68
		h0.33c4.27-0.05,7.93,1.95,11.15,6.02c7.85,9.91-1.89,22.16-11.38,29.54c-9.29,7.23-22.37,15.61-30.81,6.33
		c-1.79-1.97-2.83-4.03-3.28-6.14c7.42,2.41,15.97,3.76,23.19,0.07C103.205,116.611,104.984,106.321,100.354,99.821z M89.504,86.871
		c-4.28-3.73-9.02-7.02-13.62-10.25c-4.03-2.49-8.34-4.63-12.84-6.12c0.08-0.08,0.16-0.16,0.24-0.24c5.7-5.46,11.91-7.68,17.14-7.81
		c0.04,0,0.09-0.01,0.14-0.01h0.14c3.94-0.04,7.28,1.12,9.37,2.97C95.064,69.841,98.924,76.781,89.504,86.871z M96.834,149.181
		c-4.64-7.81,10.65-21.52,17.51-25.32c2.09-1.16,4.1-1.73,5.97-1.81h0.13c4.1-0.12,7.49,2.14,9.51,5.6
		c2.96,5.07,1.69,12.45-6.96,19.42C114.344,154.031,102.234,158.261,96.834,149.181z M174.264,126.171
		c-3.1,2.21-27.64,15.84-27.64,15.84s2.74,21.73,3.17,26.37c0.42,4.64-1.48,6.53-5.28,5.27c-3.8-1.27-20.89-7.59-23.85-8.44
		c-2.95-0.84-1.26-5.27,1.48-4.64c2.68,0.62,18.04,2.24,18.56,2.12c0.01,0,0.01-0.01,0.01-0.01s-3.8-21.94-3.17-24.26
		c0.64-2.33,21.74-16.25,21.74-16.25s-27.86-19.41-28.28-22.16c-0.42-2.74,21.1-34.18,21.1-34.18s-37.13,1.06-38.81-0.21
		c-1.69-1.26-5.5-28.06-5.5-28.06s-13.14,9.17-16.88,11.82c-3.73,2.65-6.51,5.75-12.07,1.47c-5.55-4.27-14.93-12.44-14.93-12.44
		s-2.56,14.94-3.37,21.09c-0.41,3.08-5.49,4.61-5.52-3.07c-0.02-7.67,0.03-25.29,0.03-27.3c0-3.27,2.58-8.24,9.02-2.94
		c6.43,5.3,20.09,18.34,20.09,18.34s15.93-14.93,23.21-21.66c2.83-2.61,5.15-3.78,6.95-3.87h0.08c2.79-0.08,4.32,2.43,4.58,6.11
		c0.44,6.29,1.26,31.86,1.26,31.86s28.28-4.22,39.04-5.7c10.76-1.47,12.66,9.08,8.86,13.51c-3.05,3.56-25.53,33.97-25.53,33.97
		s25.95,13.29,30.8,15.61C178.274,116.691,178.694,123.011,174.264,126.171z"/>
	<path opacity="0.5" fill="#FFFFFF" d="M99.564,162.261c-9.49,12.66-28.48,8.7-34.17,5.48c-5.68-3.21-15.19-14.13-9.92-29.11
		c-1.68,0.84-22.15,4-30.59-9.29c-8.44-13.29-3.49-35.78,8.65-47.05c5.15-4.78,10.76-6.74,16.43-6.83c0.14-0.01,0.28,0,0.42,0
		c8.77-0.01,17.65,4.37,25.13,9.58c12.45,8.65,24.06,20.46,18.99,27.64c-5.06,7.17-22.78,0.63-30.59-3.8
		c-7.81-4.43-13.5-12.24-15.82-13.3c-2.32-1.05-5.27,5.07-5.06,8.45c0.21,3.37,9.91,12.45,22.15,16.03
		c-0.43,14.35,12.44,21.31,24.05,17.93C81.004,153.181,89.865,162.051,99.564,162.261z M90.074,65.411
		c-2.09-1.85-5.43-3.01-9.37-2.97h-0.14c-0.05,0-0.1,0.01-0.14,0.01c-5.23,0.13-11.44,2.35-17.14,7.81
		c-0.08,0.08-0.16,0.16-0.24,0.24c4.5,1.49,8.81,3.63,12.84,6.12c4.6,3.23,9.34,6.52,13.62,10.25
		C98.924,76.781,95.064,69.841,90.074,65.411z M118.554,90.941c-3.22-4.07-6.88-6.07-11.15-6.02h-0.33
		c-3.98,0.15-8.49,2.06-13.63,5.68c2.67,2.76,5.03,5.79,6.91,9.22c4.63,6.5,2.85,16.79-4.08,20.92c-7.22,3.69-15.77,2.34-23.19-0.07
		c0.45,2.11,1.49,4.17,3.28,6.14c8.44,9.28,21.52,0.9,30.81-6.33C116.665,113.101,126.405,100.851,118.554,90.941z M129.955,127.651
		c-2.02-3.46-5.41-5.72-9.51-5.6h-0.13c-1.87,0.08-3.88,0.65-5.97,1.81c-6.86,3.8-22.15,17.51-17.51,25.32
		c5.4,9.08,17.51,4.85,26.16-2.11C131.645,140.101,132.915,132.721,129.955,127.651z M173.415,114.361
		c-4.85-2.32-30.8-15.61-30.8-15.61s22.48-30.41,25.53-33.97c3.8-4.43,1.9-14.98-8.86-13.51c-10.76,1.48-39.04,5.7-39.04,5.7
		s-0.82-25.57-1.26-31.86c-0.26-3.68-1.79-6.19-4.58-6.11h-0.08c-1.8,0.09-4.12,1.26-6.95,3.87c-7.28,6.73-23.21,21.66-23.21,21.66
		s-13.66-13.04-20.09-18.34c-6.44-5.3-9.02-0.33-9.02,2.94c0,2.01-0.05,19.63-0.03,27.3c0.03,7.68,5.11,6.15,5.52,3.07
		c0.81-6.15,3.37-21.09,3.37-21.09s9.38,8.17,14.93,12.44c5.56,4.28,8.34,1.18,12.07-1.47c3.74-2.65,16.88-11.82,16.88-11.82
		s3.81,26.8,5.5,28.06c1.68,1.27,38.81,0.21,38.81,0.21s-21.52,31.44-21.1,34.18c0.42,2.75,28.28,22.16,28.28,22.16
		s-21.1,13.92-21.74,16.25c-0.63,2.32,3.17,24.26,3.17,24.26s0,0.01-0.01,0.01c-0.52,0.12-15.88-1.5-18.56-2.12
		c-2.74-0.63-4.43,3.8-1.48,4.64c2.96,0.85,20.05,7.17,23.85,8.44c3.8,1.26,5.7-0.63,5.28-5.27c-0.43-4.64-3.17-26.37-3.17-26.37
		s24.54-13.63,27.64-15.84C178.694,123.011,178.274,116.691,173.415,114.361z"/>
</g>
</svg>
