<?xml version="1.0" encoding="utf-8"?>
<!-- Generator: Adobe Illustrator 17.0.0, SVG Export Plug-In . SVG Version: 6.00 Build 0)  -->
<!DOCTYPE svg PUBLIC "-//W3C//DTD SVG 1.1//EN" "http://www.w3.org/Graphics/SVG/1.1/DTD/svg11.dtd">
<svg version="1.1" id="Layer_1" xmlns="http://www.w3.org/2000/svg" xmlns:xlink="http://www.w3.org/1999/xlink" x="0px" y="0px"
	 width="200px" height="200px" viewBox="0 0 200 200" enable-background="new 0 0 200 200" xml:space="preserve">
<g>
	<path id="path2682_1_" d="M100.01,0.418h-0.64c-54.68,0.35-98.95,44.84-98.95,99.6c0,54.97,44.62,99.59,99.59,99.59
		c54.98,0,99.6-44.62,99.6-99.59C199.61,45.038,154.99,0.418,100.01,0.418z M118.48,80.418c0.01-0.01,0.01-0.02,0.01-0.02v-0.01
		h0.02c-0.01,0.02-0.01,0.04-0.02,0.07c0-0.01-0.01-0.02-0.01-0.02C118.48,80.428,118.48,80.418,118.48,80.418z M42.49,42.058
		c2.96-5.16,9.47-7.39,18.65-8.27c0.35-0.03,0.69-0.05,1.02-0.06c0.1-0.01,0.19-0.01,0.28-0.01c7.9-0.06,8.76,6.85,10.67,10.88
		c2.01,4.24,2.76,7.1,4.98,7.1c1.7,0,9.32-7.56,12.71-7.63c2.86-0.05,8.61,5.65,11.85,8.99c4.15,4.28,3.01,6.32,0.76,5.42
		c-2.16-0.86-9.85-6.6-12.93-6.46c-2.44,0.1-12.7,12.94-16.64,11.65c-4.82-1.57-6.35-16.63-10.91-18.33
		c-4.55-1.69-11.23,7.74-15.78,7.64C42.64,52.868,40.82,44.968,42.49,42.058z M79.86,113.358c-7.44,3.13-23.68-15.29-26.98-13.8
		c-3.3,1.5-5.06,29.24-12,36.59c-4.31,4.55-14.07,7.18-18.05-1.42c-4.07-8.78,3.24-13.74,7.56-15.12
		c8.23-2.63,8.14-34.52,15.6-36.83c8.06-2.49,26.33,18.91,29.37,17.09c3.17-1.91,5.4-22.16,8.22-24.47
		c2.46-2.02,24.48-6.07,27.68-6.66c0.22-0.04,0.42-0.08,0.62-0.09h0.08c2.72-0.09,3.3,2.57-0.34,4.05
		c-6.32,2.56-21.97,8.17-22.77,9.19C86.61,84.728,84.8,111.268,79.86,113.358z M151.18,93.278c-5.35,6.01-13.79,8.68-14.09,13.18
		c-0.3,4.49,6.46,5.72,7.8,11.08c1.2,4.8-6.3,14.99-7.8,25.18c-1.06,7.26,6,31.77,1.5,33.57c-4.49,1.79-14.68-27.28-20.08-26.08
		c-5.39,1.2-0.9,33.27-5.09,34.76c-4.2,1.5-9.89-11.98-12.89-35.65c-2.99-23.68,3.6-36.87,8.99-41.07
		c4.07-3.16,12.59-0.29,14.99-6.59c1.76-4.62-10.43-7.17-6.02-21.18c0.36,1.17,8.49,11.9,16.81,12.5
		c8.39,0.59,15.3-11.03,15.58-19.48c0.3-9.29-3.89-21.88-24.27-26.08c2.52-6.41,10.72-12.45,19.61-12.63h0.32
		c4.71-0.02,9.61,1.63,13.93,5.74C175.82,55.158,160.77,82.488,151.18,93.278z"/>
	<path opacity="0.5" fill="#FFFFFF" d="M151.18,93.278c-5.35,6.01-13.79,8.68-14.09,13.18c-0.3,4.49,6.46,5.72,7.8,11.08
		c1.2,4.8-6.3,14.99-7.8,25.18c-1.06,7.26,6,31.77,1.5,33.57c-4.49,1.79-14.68-27.28-20.08-26.08c-5.39,1.2-0.9,33.27-5.09,34.76
		c-4.2,1.5-9.89-11.98-12.89-35.65c-2.99-23.68,3.6-36.87,8.99-41.07c4.07-3.16,12.59-0.29,14.99-6.59
		c1.76-4.62-10.43-7.17-6.02-21.18c0.36,1.17,8.49,11.9,16.81,12.5c8.39,0.59,15.3-11.03,15.58-19.48
		c0.3-9.29-3.89-21.88-24.27-26.08c2.52-6.41,10.72-12.45,19.61-12.63h0.32c4.71-0.02,9.61,1.63,13.93,5.74
		C175.82,55.158,160.77,82.488,151.18,93.278z M102.65,53.058c-3.24-3.34-8.99-9.04-11.85-8.99c-3.39,0.07-11.01,7.63-12.71,7.63
		c-2.22,0-2.97-2.86-4.98-7.1c-1.91-4.03-2.77-10.94-10.67-10.88c-0.09,0-0.18,0-0.28,0.01c-0.33,0.01-0.67,0.03-1.02,0.06
		c-9.18,0.88-15.69,3.11-18.65,8.27c-1.67,2.91,0.15,10.81,4.66,10.92c4.55,0.1,11.23-9.33,15.78-7.64
		c4.56,1.7,6.09,16.76,10.91,18.33c3.94,1.29,14.2-11.55,16.64-11.65c3.08-0.14,10.77,5.6,12.93,6.46
		C105.66,59.378,106.8,57.338,102.65,53.058z M111.96,68.648h-0.08c-0.2,0.01-0.4,0.05-0.62,0.09c-3.2,0.59-25.22,4.64-27.68,6.66
		c-2.82,2.31-5.05,22.56-8.22,24.47c-3.04,1.82-21.31-19.58-29.37-17.09c-7.46,2.31-7.37,34.2-15.6,36.83
		c-4.32,1.38-11.63,6.34-7.56,15.12c3.98,8.6,13.74,5.97,18.05,1.42c6.94-7.35,8.7-35.09,12-36.59c3.3-1.49,19.54,16.93,26.98,13.8
		c4.94-2.09,6.75-28.63,8.99-31.47c0.8-1.02,16.45-6.63,22.77-9.19C115.26,71.218,114.68,68.558,111.96,68.648z"/>
</g>
</svg>
