<?xml version="1.0" encoding="utf-8"?>
<!-- Generator: Adobe Illustrator 17.0.0, SVG Export Plug-In . SVG Version: 6.00 Build 0)  -->
<!DOCTYPE svg PUBLIC "-//W3C//DTD SVG 1.1//EN" "http://www.w3.org/Graphics/SVG/1.1/DTD/svg11.dtd">
<svg version="1.1" id="Layer_1" xmlns="http://www.w3.org/2000/svg" xmlns:xlink="http://www.w3.org/1999/xlink" x="0px" y="0px"
	 width="200px" height="200px" viewBox="0 0 200 200" enable-background="new 0 0 200 200" xml:space="preserve">
<g>
	<path id="path2339_1_" d="M100.015,0.411h-0.64c-54.69,0.35-98.96,44.84-98.96,99.6c0,54.98,44.62,99.61,99.6,99.61
		c54.98,0,99.6-44.63,99.6-99.61C199.615,45.031,154.995,0.411,100.015,0.411z M37.395,77.451h0.16c2.67,0,5.69,2.53,5.84,8.37
		c0.15,5.84-1.76,9.69-3.4,9.69c-2.44,0-5.86-6.9-6.81-11.39C32.325,80.001,35.195,77.571,37.395,77.451z M18.765,103.131
		c-1.27-1.4-2.58-3.36-0.59-5.63c0.88-1,2.1-0.77,3.1-0.19c-0.97-1.45-1.92-3.88-0.07-5.57c1.53-1.4,2.64-0.96,3.51-0.02
		c-0.54-1.79-0.38-4.17,1.78-5.44c0.33-0.19,0.66-0.29,1-0.32c0.03,0,0.05-0.01,0.07-0.01c1.39-0.07,2.82,1.14,3.62,2.99
		c0.97,2.22,1.33,7.48-0.65,8.15c-1.32,0.38-2.55-0.29-3.58-1.44c0.66,1.85,1.06,4.11,0.32,4.75c-1.17,1.06-2.76,0.12-3.95-0.9
		c0.69,1.15,1.29,2.73,0.61,4.3C22.605,105.281,19.845,104.331,18.765,103.131z M56.935,164.241c-6.8,0.15-16.13-13.76-22.49-23.38
		v-0.01c-0.23-0.43-8.03-12.61-9.91-20.26c-1.92-7.85,1-14.23,7.4-18.49c2.56-1.71,4.98-2.63,7.17-2.74h0.16
		c3.44-0.1,6.32,1.8,8.35,5.69c3.09,5.94-7.87,17.76-9.17,24.56c-1.4,7.29,2.96,11.54,5.77,14.8c2.81,3.25,9.03,3.55,13.02,4.29
		c4,0.74,6.21,5.18,6.36,7.11C63.745,157.731,63.745,164.091,56.935,164.241z M77.445,125.691c-0.45,2.28-1.47,7.74-5.65,5.85
		c-2.13-0.74-2.54-2.99-2.46-5.12c-0.84,1.12-2.07,1.74-3.93,0.84c-2.13-1.37-2.43-3.86-1.88-6.36c-0.85,0.67-1.93,0.95-3.24,0.08
		c-1.78-1.47-1.99-3.77-0.84-6.49c0.89-2.1,2.89-3.71,4.48-3.91h0.01c0.01,0,0.02,0,0.02,0h0.02c0.01,0,0.01,0,0.02,0h0.02
		c0,0,0.01,0,0.02,0c0,0,0,0,0.01,0s0.02,0,0.02,0c0.01,0,0.01,0,0.01,0h0.01c0.01,0,0.01,0,0.02,0h0.01
		c0.4-0.02,0.77,0.07,1.09,0.25c1.01,0.61,1.11,2.96,0.88,4.88c1.21-1.3,2.71-2.07,3.93-1.32c1.1,0.66,1.45,2.71,1.41,4.75
		c1.05-1.51,2.45-2.71,3.71-2.25C77.445,117.731,77.945,123.171,77.445,125.691z M86.345,137.611c-3.98,0.53-5.97-3.14-6.29-6.8
		c-0.31-3.59,1.71-13.73,4.35-14.12h0.01c0.01,0,0.02,0,0.02,0h0.01c0,0,0.01,0,0.02,0h0.09c2.72,0,7.12,8.89,7.22,12.66
		C91.885,133.121,90.835,137.611,86.345,137.611z M92.445,50.711c-3.3,5.65-8.47,3.18-14.2,16.43c-4.79,11.06,0.89,17.6,3.4,20.85
		c2.52,3.26,9.92,8.44,9.92,15.98c0,7.55-5.77,9.33-11.4,9.48c-5.62,0.14-13.47-4.43-17.9-11.4c-4.14-6.51,2.36-25.45,6.36-38.33
		c3.4-10.94,6.82-18.82,11.39-24.41c1.94-2.36,4.14-3.42,6.21-3.52h0.02v-0.01h0.12C92.155,35.631,96.935,43.031,92.445,50.711z
		 M156.635,85.821c0.14-5.62,2.94-8.18,5.53-8.37h0.32c2.22,0,5.25,2.45,4.36,6.67c-0.94,4.49-4.36,11.39-6.8,11.39
		C158.405,95.511,156.485,91.661,156.635,85.821z M113.165,35.791c0.01,0,0.02,0,0.02,0v-0.01h0.14c2.22-0.06,4.61,0.99,6.69,3.53
		c4.58,5.59,7.99,13.47,11.39,24.41c4,12.88,10.51,31.82,6.37,38.33c-4.43,6.97-12.28,11.54-17.91,11.4
		c-5.62-0.15-11.39-1.93-11.39-9.48c0-7.54,7.4-12.72,9.92-15.98c2.51-3.25,8.19-9.79,3.4-20.85c-5.73-13.25-10.9-10.78-14.2-16.43
		C103.235,43.251,107.615,36.071,113.165,35.791z M119.975,130.811c-0.32,3.66-2.3,7.33-6.28,6.8c-4.5,0-5.54-4.49-5.44-8.26
		c0.11-3.68,4.31-12.26,7.04-12.66h0.03c0,0,0.01,0,0.02,0h0.01c0,0,0.01,0,0.02,0h0.11
		C118.205,116.691,120.285,127.151,119.975,130.811z M134.635,127.261c-1.86,0.9-3.09,0.28-3.94-0.84c0.09,2.13-0.33,4.38-2.45,5.12
		c-4.18,1.89-5.2-3.57-5.65-5.85c-0.5-2.52,0-7.96,2.3-8.8c1.27-0.46,2.67,0.74,3.72,2.25c-0.04-2.04,0.31-4.09,1.41-4.75
		c1.21-0.75,2.72,0.02,3.93,1.32c-0.23-1.92-0.13-4.27,0.88-4.88c0.24-0.14,0.5-0.22,0.79-0.25h0.02c0,0,0,0,0-0.01h0.02
		c0,0,0.01,0,0.02,0c0,0,0.01,0,0.02,0h0.02c0.01,0,0.01,0,0.01,0c0.06,0,0.13,0.01,0.19,0.01c1.62,0.09,3.74,1.73,4.66,3.91
		c1.16,2.72,0.95,5.02-0.83,6.49c-1.31,0.87-2.4,0.59-3.25-0.08C137.065,123.401,136.765,125.891,134.635,127.261z M175.505,120.591
		c-1.89,7.71-9.81,20.03-9.92,20.27c-6.36,9.62-15.68,23.53-22.49,23.38c-6.8-0.15-6.8-6.51-6.65-8.43
		c0.15-1.93,2.36-6.37,6.36-7.11c3.99-0.74,10.21-1.04,13.02-4.29c2.81-3.26,7.17-7.51,5.77-14.8c-1.3-6.8-12.27-18.62-9.17-24.56
		c1.85-3.56,4.42-5.47,7.48-5.69h0.34c2.37-0.07,5.02,0.85,7.86,2.74C174.505,106.361,177.425,112.741,175.505,120.591z
		 M176.095,103.801c-0.67-1.57-0.07-3.15,0.62-4.3c-1.19,1.02-2.79,1.96-3.95,0.9c-0.74-0.64-0.34-2.9,0.32-4.75
		c-1.03,1.15-2.26,1.82-3.59,1.44c-1.98-0.67-1.61-5.93-0.65-8.15c0.73-1.68,1.98-2.84,3.25-2.99h0.03c0.01,0,0.02,0,0.02,0h0.01
		c0.01,0,0.02,0,0.02,0h0.07c0.1-0.01,0.19,0,0.29,0.01c0.35,0.03,0.68,0.13,1.01,0.32c2.16,1.27,2.31,3.65,1.78,5.44
		c0.87-0.94,1.97-1.38,3.51,0.02c1.84,1.69,0.9,4.12-0.07,5.57c1-0.58,2.22-0.81,3.1,0.19c1.99,2.27,0.68,4.23-0.59,5.63
		C180.195,104.331,177.435,105.281,176.095,103.801z"/>
	<path opacity="0.5" fill="#FFFFFF" d="M181.275,103.131c-1.08,1.2-3.84,2.15-5.18,0.67c-0.67-1.57-0.07-3.15,0.62-4.3
		c-1.19,1.02-2.79,1.96-3.95,0.9c-0.74-0.64-0.34-2.9,0.32-4.75c-1.03,1.15-2.26,1.82-3.59,1.44c-1.98-0.67-1.61-5.93-0.65-8.15
		c0.73-1.68,1.98-2.84,3.25-2.99h0.03c0.01,0,0.02,0,0.02,0h0.01c0.01,0,0.02,0,0.02,0h0.07c0.1-0.01,0.19,0,0.29,0.01
		c0.35,0.03,0.68,0.13,1.01,0.32c2.16,1.27,2.31,3.65,1.78,5.44c0.87-0.94,1.97-1.38,3.51,0.02c1.84,1.69,0.9,4.12-0.07,5.57
		c1-0.58,2.22-0.81,3.1,0.19C183.855,99.771,182.545,101.731,181.275,103.131z M162.485,77.451h-0.32
		c-2.59,0.19-5.39,2.75-5.53,8.37c-0.15,5.84,1.77,9.69,3.41,9.69c2.44,0,5.86-6.9,6.8-11.39
		C167.735,79.901,164.705,77.451,162.485,77.451z M168.105,102.101c-2.84-1.89-5.49-2.81-7.86-2.74h-0.34
		c-3.06,0.22-5.63,2.13-7.48,5.69c-3.1,5.94,7.87,17.76,9.17,24.56c1.4,7.29-2.96,11.54-5.77,14.8c-2.81,3.25-9.03,3.55-13.02,4.29
		c-4,0.74-6.21,5.18-6.36,7.11c-0.15,1.92-0.15,8.28,6.65,8.43c6.81,0.15,16.13-13.76,22.49-23.38c0.11-0.24,8.03-12.56,9.92-20.27
		C177.425,112.741,174.505,106.361,168.105,102.101z M131.405,63.721c-3.4-10.94-6.81-18.82-11.39-24.41
		c-2.08-2.54-4.47-3.59-6.69-3.53h-0.14v0.01c0,0-0.01,0-0.02,0c-5.55,0.28-9.93,7.46-5.57,14.92c3.3,5.65,8.47,3.18,14.2,16.43
		c4.79,11.06-0.89,17.6-3.4,20.85c-2.52,3.26-9.92,8.44-9.92,15.98c0,7.55,5.77,9.33,11.39,9.48c5.63,0.14,13.48-4.43,17.91-11.4
		C141.915,95.541,135.405,76.601,131.405,63.721z M140.585,114.491c-0.92-2.18-3.04-3.82-4.66-3.91c-0.06,0-0.13-0.01-0.19-0.01
		c0,0,0,0-0.01,0h-0.02c-0.01,0-0.02,0-0.02,0c-0.01,0-0.02,0-0.02,0h-0.02c0,0.01,0,0.01,0,0.01h-0.02
		c-0.29,0.03-0.55,0.11-0.79,0.25c-1.01,0.61-1.11,2.96-0.88,4.88c-1.21-1.3-2.72-2.07-3.93-1.32c-1.1,0.66-1.45,2.71-1.41,4.75
		c-1.05-1.51-2.45-2.71-3.72-2.25c-2.3,0.84-2.8,6.28-2.3,8.8c0.45,2.28,1.47,7.74,5.65,5.85c2.12-0.74,2.54-2.99,2.45-5.12
		c0.85,1.12,2.08,1.74,3.94,0.84c2.13-1.37,2.43-3.86,1.87-6.36c0.85,0.67,1.94,0.95,3.25,0.08
		C141.535,119.511,141.745,117.211,140.585,114.491z M115.485,116.691h-0.11c-0.01,0-0.02,0-0.02,0h-0.01c-0.01,0-0.02,0-0.02,0
		h-0.03c-2.73,0.4-6.93,8.98-7.04,12.66c-0.1,3.77,0.94,8.26,5.44,8.26c3.98,0.53,5.96-3.14,6.28-6.8
		C120.285,127.151,118.205,116.691,115.485,116.691z M91.775,129.351c-0.1-3.77-4.5-12.66-7.22-12.66h-0.09c-0.01,0-0.02,0-0.02,0
		h-0.01c0,0-0.01,0-0.02,0h-0.01c-2.64,0.39-4.66,10.53-4.35,14.12c0.32,3.66,2.31,7.33,6.29,6.8
		C90.835,137.611,91.885,133.121,91.775,129.351z M75.135,116.891c-1.26-0.46-2.66,0.74-3.71,2.25c0.04-2.04-0.31-4.09-1.41-4.75
		c-1.22-0.75-2.72,0.02-3.93,1.32c0.23-1.92,0.13-4.27-0.88-4.88c-0.32-0.18-0.69-0.27-1.09-0.25h-0.01c-0.01,0-0.01,0-0.02,0h-0.01
		c0,0,0,0-0.01,0c0,0-0.01,0-0.02,0s-0.01,0-0.01,0c-0.01,0-0.02,0-0.02,0h-0.02c-0.01,0-0.01,0-0.02,0h-0.02c0,0-0.01,0-0.02,0
		h-0.01c-1.59,0.2-3.59,1.81-4.48,3.91c-1.15,2.72-0.94,5.02,0.84,6.49c1.31,0.87,2.39,0.59,3.24-0.08
		c-0.55,2.5-0.25,4.99,1.88,6.36c1.86,0.9,3.09,0.28,3.93-0.84c-0.08,2.13,0.33,4.38,2.46,5.12c4.18,1.89,5.2-3.57,5.65-5.85
		C77.945,123.171,77.445,117.731,75.135,116.891z M63.595,155.811c-0.15-1.93-2.36-6.37-6.36-7.11c-3.99-0.74-10.21-1.04-13.02-4.29
		c-2.81-3.26-7.17-7.51-5.77-14.8c1.3-6.8,12.26-18.62,9.17-24.56c-2.03-3.89-4.91-5.79-8.35-5.69h-0.16
		c-2.19,0.11-4.61,1.03-7.17,2.74c-6.4,4.26-9.32,10.64-7.4,18.49c1.88,7.65,9.68,19.83,9.91,20.26v0.01
		c6.36,9.62,15.69,23.53,22.49,23.38C63.745,164.091,63.745,157.731,63.595,155.811z M43.395,85.821c-0.15-5.84-3.17-8.37-5.84-8.37
		h-0.16c-2.2,0.12-5.07,2.55-4.21,6.67c0.95,4.49,4.37,11.39,6.81,11.39C41.635,95.511,43.545,91.661,43.395,85.821z M31.185,88.941
		c-0.8-1.85-2.23-3.06-3.62-2.99c-0.02,0-0.04,0.01-0.07,0.01c-0.34,0.03-0.67,0.13-1,0.32c-2.16,1.27-2.32,3.65-1.78,5.44
		c-0.87-0.94-1.98-1.38-3.51,0.02c-1.85,1.69-0.9,4.12,0.07,5.57c-1-0.58-2.22-0.81-3.1,0.19c-1.99,2.27-0.68,4.23,0.59,5.63
		c1.08,1.2,3.84,2.15,5.17,0.67c0.68-1.57,0.08-3.15-0.61-4.3c1.19,1.02,2.78,1.96,3.95,0.9c0.74-0.64,0.34-2.9-0.32-4.75
		c1.03,1.15,2.26,1.82,3.58,1.44C32.515,96.421,32.155,91.161,31.185,88.941z M92.445,50.711c4.49-7.68-0.29-15.08-6.08-14.93h-0.12
		v0.01h-0.02c-2.07,0.1-4.27,1.16-6.21,3.52c-4.57,5.59-7.99,13.47-11.39,24.41c-4,12.88-10.5,31.82-6.36,38.33
		c4.43,6.97,12.28,11.54,17.9,11.4c5.63-0.15,11.4-1.93,11.4-9.48c0-7.54-7.4-12.72-9.92-15.98c-2.51-3.25-8.19-9.79-3.4-20.85
		C83.975,53.891,89.145,56.361,92.445,50.711z"/>
</g>
</svg>
