<?xml version="1.0" encoding="utf-8"?>
<!-- Generator: Adobe Illustrator 17.0.0, SVG Export Plug-In . SVG Version: 6.00 Build 0)  -->
<!DOCTYPE svg PUBLIC "-//W3C//DTD SVG 1.1//EN" "http://www.w3.org/Graphics/SVG/1.1/DTD/svg11.dtd">
<svg version="1.1" id="Layer_1" xmlns="http://www.w3.org/2000/svg" xmlns:xlink="http://www.w3.org/1999/xlink" x="0px" y="0px"
	 width="150px" height="80px" viewBox="0 0 150 80" enable-background="new 0 0 150 80" xml:space="preserve">
<g>
	<path fill="#F39E74" d="M24.726,26.814c0-1.655,1.347-3.811,3.464-3.811c1.578,0,2.271,0.924,2.271,2.002
		c0,1.617-1.578,3.657-4.003,3.657C25.265,28.662,24.726,27.815,24.726,26.814z M79.845,28.661c0.192,0.039,0.423,0.039,0.616,0.039
		c2.04,0,3.349-1.925,3.349-3.541c0-1.155-0.654-2.156-2.233-2.156c-2.117,0-3.464,1.925-3.464,3.541
		C78.113,27.583,78.652,28.468,79.845,28.661z M96.474,42.287c0,0.154-0.038,0.346-0.115,0.539
		c-1.732,4.311-4.427,7.699-8.853,7.699c-3.093,0-4.472-2.622-4.64-5.949c-1.455,2.767-3.23,4.703-5.061,6.18
		c-1.963,8.892-4.581,12.202-7.699,12.202c-0.539,0-1.617-0.231-1.925-0.77c-1.001-0.27-2.002-1.463-2.002-3.002
		c0-4.157,4.119-5.736,8.045-8.007c0.387-1.804,0.75-3.638,1.097-5.458c-1.835,3.104-4.366,4.919-8.757,4.919
		c-1.77,0-2.81-0.385-3.387-0.847c-1.001,4.581-1.81,8.623-1.925,10.008c-0.077,0.924-0.731,1.155-1.424,1.155
		c-0.808,0-1.655-0.423-1.655-1.655c0-0.669,1.078-6.376,2.318-12.422c-1.012,1.905-2.422,3.722-4.203,3.722
		c-1.54,0-3.002-1.078-3.002-3.387c0-3.349,3.041-10.47,3.041-13.011c0-0.577-0.154-0.924-0.539-0.924
		c-1.001,0-3.464,3.849-5.119,10.085c-0.385,1.809-0.847,3.811-1.309,6.043c-0.154,0.693-0.847,1.078-1.578,1.078
		c-0.885,0-1.809-0.577-1.809-1.809c0-1.655,2.656-10.663,2.656-13.973c0-0.847-0.192-1.386-0.616-1.386
		c-1.771,0-4.85,7.66-6.159,16.013c-0.116,0.731-0.808,1.116-1.54,1.116c-0.77,0-1.578-0.5-1.578-1.501
		c0-0.446,0.179-1.794,0.483-3.607c-1.591,2.589-4.058,5.262-6.525,5.262c-1.967,0-2.952-1.324-3.326-3.449
		c-2.002,1.859-4.015,3.333-5.296,3.333c-1.501,0-2.771-1.078-2.771-3.965c0-0.369,0.038-0.861,0.107-1.45
		c-2.05,2.999-5.195,4.421-9.036,5.145c1.386,0.654,2.502,3.619,2.502,6.39c0,2.579-1.001,4.966-3.772,4.966
		c-2.309,0-3.156-2.156-3.156-5.582c0-2.974,0.624-6.87,1.469-11.126c-0.928,0.232-1.62,0.356-1.844,0.39
		c-1.903,0.288-0.393-1.074,0.355-1.24c0.354-0.079,1.029-0.2,1.728-0.334c0.133-0.651,0.27-1.308,0.41-1.97
		c2.271-10.778,4.35-20.286,9.624-20.286c0.924,0,1.617,0.501,1.771,1.116c0.577,0.308,1.501,1.193,1.501,3.31
		c0,7.258-3.761,13.793-7.163,16.306l0.002,0.001c-0.094,0.069-0.19,0.137-0.288,0.204c-0.016,0.011-0.032,0.021-0.049,0.032
		c-0.709,0.478-1.506,0.888-2.316,1.236c-0.289,1.459-0.607,2.966-0.926,4.701c4.199-0.534,7.564-1.716,9.571-5.791
		c0.557-3.185,1.519-7.451,2.514-11.107c0.192-0.654,0.808-1.001,1.54-1.001c0.962,0,2.002,0.654,2.002,1.963
		c0,2.04-3.195,11.316-3.195,14.28c0,0.808,0.192,1.27,0.693,1.27c0.647,0,2.163-1.382,3.849-3.195
		c0.004-2.186,0.35-4.827,0.885-7.583c1.424-7.698,3.695-15.82,7.198-15.82c0.693,0,1.27,0.385,1.54,0.77
		c1.001,0.577,1.694,1.309,1.694,3.888c0,3.222-2.09,9.484-4.777,13.815c0,0.008-0.008,0.019-0.015,0.027
		c-0.089,0.177-0.262,0.447-0.504,0.785c-0.027,0.038-0.054,0.077-0.081,0.115c-0.462,0.674-0.939,1.282-1.424,1.805
		c0,0-0.004,0-0.004,0.004c-0.377,0.446-0.789,0.924-1.232,1.416c-0.192,3.21,0.45,4.165,1.493,4.165
		c2.04,0,4.427-3.002,5.774-5.697c0.001-0.002,0.002-0.004,0.003-0.006c0.6-3.146,1.41-6.836,2.268-9.734
		c0.192-0.693,0.808-1.001,1.424-1.001c0.924,0,1.886,0.654,1.886,1.771c0,0.192,0,0.385-0.423,1.848
		c1.27-2.618,2.81-4.427,4.619-4.427c3.349,0,3.08,3.118,2.541,5.505c1.309-3.156,2.964-5.505,4.773-5.505
		c2.271,0,2.849,1.809,2.849,3.234c0,4.273-3.272,11.202-3.272,13.742c0,0.616,0.154,0.962,0.654,0.962
		c1.601,0,3.813-5.22,4.34-6.295c0.834-3.915,1.643-7.488,2.164-9.372c0.269-0.962,1.039-1.386,1.77-1.386
		c0.847,0,1.655,0.539,1.655,1.463c0,0.154,0,0.27-0.308,1.54c1.116-2.425,2.502-4.119,4.157-4.119c2.348,0,3.31,2.271,3.31,5.043
		c0,4.542-2.425,10.855-5.62,13.511c3.483-0.765,5.558-2.941,7.397-6.712c0.724-3.903,1.398-7.617,2.11-10.688
		c0.192-0.77,0.77-1.116,1.424-1.116c1.001,0,2.117,0.77,2.117,1.886c0,1.001-1.54,6.89-3.233,15.782
		c1.726-1.458,3.299-3.337,4.567-5.902c0.47-5.474,3.568-11.766,7.289-11.766c0.847,0,1.732,0.27,2.194,0.654
		c1.617,0.192,2.348,1.655,2.348,3.541c0,3.695-2.771,8.892-6.852,8.892c-0.462,0-0.962-0.077-1.463-0.231
		c0,1.694,0.154,4.619,2.541,4.619c3.657,0,5.62-4.157,6.621-5.736c0.231-0.385,0.423-0.539,0.616-0.539
		C96.359,41.903,96.474,42.056,96.474,42.287z M86.504,42.518c0.115,0.038,0.192,0.038,0.308,0.038c2.271,0,5.543-6.082,5.543-9.084
		c0-0.616-0.077-1.27-0.654-1.27C89.507,32.202,86.966,37.899,86.504,42.518z M33.009,40.228c0.073-0.058,0.146-0.123,0.216-0.189
		c0.558-0.512,1.089-1.216,1.578-2.055c2.144-3.664,3.549-9.862,3.549-13.441c0-0.616-0.038-1.193-0.115-1.655
		C36.851,23.311,34.203,33.184,33.009,40.228z M13.451,41.97c0.208-0.208,0.448-0.453,0.737-0.749
		c3.365-3.86,7.037-13.502,7.037-16.871c0-0.885-0.039-1.463-0.77-1.463C18.723,22.886,16.414,29.62,13.451,41.97z M11.678,51.256
		c-1.27,5.967-1.463,7.006-1.463,7.814s0.269,1.309,0.654,1.309c0.962,0,1.848-1.848,1.848-4.388
		C12.718,54.567,12.41,52.912,11.678,51.256z M70.415,35.628c0-1.386-0.308-2.194-1.001-2.194c-1.501,0-3.195,3.772-4.465,8.7
		l-1.27,5.581c0.423,0,0.924,0.231,1.463,0.885C67.759,48.138,70.415,39.747,70.415,35.628z M73.686,53.566
		c-2.695,1.655-5.774,3.387-5.774,6.313c0,0.847,0.27,1.309,0.847,1.655c1.617,0.154,3.349-1.116,4.735-7.083
		C73.571,54.143,73.648,53.874,73.686,53.566z"/>
	<path fill="#F3C3A8" d="M118.535,45.688h-6.703v-1.562l3.078-3.914c0.219-0.302,0.401-0.576,0.547-0.824
		c0.146-0.247,0.263-0.475,0.352-0.684c0.089-0.208,0.151-0.4,0.188-0.578c0.036-0.177,0.055-0.349,0.055-0.516
		c0-0.505-0.087-0.9-0.262-1.188c-0.175-0.286-0.426-0.43-0.754-0.43c-0.198,0-0.37,0.049-0.516,0.145
		c-0.146,0.097-0.269,0.229-0.367,0.398c-0.099,0.17-0.172,0.371-0.219,0.605s-0.07,0.487-0.07,0.758h-2.219
		c0-0.516,0.079-1,0.238-1.453s0.386-0.849,0.68-1.188c0.294-0.338,0.653-0.606,1.078-0.805c0.425-0.197,0.902-0.297,1.434-0.297
		c0.521,0,0.98,0.074,1.379,0.223s0.733,0.361,1.004,0.637c0.271,0.276,0.476,0.615,0.613,1.016
		c0.138,0.401,0.207,0.852,0.207,1.352c0,0.381-0.05,0.749-0.148,1.105c-0.099,0.357-0.241,0.713-0.426,1.066
		c-0.185,0.354-0.41,0.713-0.676,1.074c-0.266,0.362-0.565,0.741-0.898,1.137l-1.461,2.086h3.867V45.688z M127.174,40.984
		c0,0.854-0.081,1.588-0.242,2.199c-0.161,0.612-0.388,1.115-0.68,1.508c-0.292,0.394-0.64,0.684-1.043,0.871
		s-0.848,0.281-1.332,0.281s-0.93-0.094-1.336-0.281s-0.755-0.478-1.047-0.871c-0.292-0.393-0.52-0.896-0.684-1.508
		c-0.164-0.611-0.246-1.345-0.246-2.199V39c0-0.849,0.081-1.579,0.242-2.191c0.161-0.611,0.388-1.114,0.68-1.508
		c0.292-0.393,0.64-0.682,1.043-0.867c0.403-0.185,0.848-0.277,1.332-0.277s0.93,0.093,1.336,0.277
		c0.406,0.186,0.755,0.475,1.047,0.867c0.292,0.394,0.52,0.896,0.684,1.508c0.164,0.612,0.246,1.343,0.246,2.191V40.984z
		 M124.956,38.68c0-0.5-0.026-0.92-0.078-1.262c-0.052-0.341-0.125-0.617-0.219-0.828s-0.208-0.363-0.344-0.457
		s-0.286-0.141-0.453-0.141s-0.317,0.047-0.453,0.141s-0.25,0.246-0.344,0.457s-0.167,0.487-0.219,0.828
		c-0.052,0.342-0.078,0.762-0.078,1.262v2.609c0,0.506,0.026,0.932,0.078,1.277c0.052,0.347,0.126,0.627,0.223,0.84
		c0.097,0.214,0.212,0.367,0.348,0.461s0.289,0.141,0.461,0.141c0.167,0,0.316-0.047,0.449-0.141s0.246-0.247,0.34-0.461
		c0.094-0.213,0.165-0.493,0.215-0.84c0.05-0.346,0.074-0.771,0.074-1.277V38.68z M133.846,45.688h-2.219V37l-2.164,0.836v-1.844
		l4.148-1.695h0.234V45.688z M142.901,41.391h0.969v1.836h-0.969v2.461h-2.211v-2.461h-3.766l-0.102-1.43l3.859-7.484h2.219V41.391z
		 M138.971,41.391h1.719v-3.805l-0.047,0.086L138.971,41.391z"/>
</g>
</svg>
