<?xml version="1.0" encoding="utf-8"?>
<!-- Generator: Adobe Illustrator 17.0.0, SVG Export Plug-In . SVG Version: 6.00 Build 0)  -->
<!DOCTYPE svg PUBLIC "-//W3C//DTD SVG 1.1//EN" "http://www.w3.org/Graphics/SVG/1.1/DTD/svg11.dtd">
<svg version="1.1" id="Layer_1" xmlns="http://www.w3.org/2000/svg" xmlns:xlink="http://www.w3.org/1999/xlink" x="0px" y="0px"
	 width="81px" height="81px" viewBox="0 0 81 81" enable-background="new 0 0 81 81" xml:space="preserve">
<path fill="#F39E74" d="M50.84,40.243l-9.06-10.5l-0.06-0.075c-0.015-0.015-0.03-0.045-0.06-0.06
	c-0.015-0.015-0.015-0.015-0.03-0.03c-0.015-0.03-0.045-0.045-0.075-0.075c-0.03-0.03-0.06-0.045-0.09-0.06
	c-0.075-0.075-0.18-0.12-0.285-0.165c-0.06-0.03-0.12-0.06-0.195-0.075H40.97c-0.045-0.015-0.09-0.03-0.135-0.03
	c-0.165-0.045-0.345-0.045-0.525,0c-0.045,0-0.09,0.015-0.135,0.03c-0.075,0.015-0.135,0.045-0.21,0.075
	c-0.075,0.03-0.165,0.075-0.24,0.135c-0.045,0.03-0.075,0.06-0.12,0.09c-0.06,0.045-0.12,0.105-0.165,0.165l-0.06,0.075l-9.06,10.5
	l2.28,1.965l6.48-7.527v16.962h3V34.681l6.48,7.528L50.84,40.243z"/>
<rect x="15.677" y="15.677" display="none" fill="none" stroke="#FAD5C2" stroke-miterlimit="10" width="49.646" height="49.646"/>
</svg>
