<?xml version="1.0" encoding="utf-8"?>
<!-- Generator: Adobe Illustrator 17.0.0, SVG Export Plug-In . SVG Version: 6.00 Build 0)  -->
<!DOCTYPE svg PUBLIC "-//W3C//DTD SVG 1.1//EN" "http://www.w3.org/Graphics/SVG/1.1/DTD/svg11.dtd">
<svg version="1.1" id="Layer_1" xmlns="http://www.w3.org/2000/svg" xmlns:xlink="http://www.w3.org/1999/xlink" x="0px" y="0px"
	 width="200px" height="200px" viewBox="0 0 200 200" enable-background="new 0 0 200 200" xml:space="preserve">
<path fill="#FFFFFF" d="M186.743,161.047l-33.48-33.491c-2.946-2.94-8.279-2.661-13.625,0.124l-14.609-14.601
	c19.03-24.866,17.235-60.56-5.513-83.311c-24.767-24.755-64.919-24.755-89.69,0c-24.758,24.771-24.758,64.923,0,89.695
	c22.756,22.748,58.451,24.543,83.312,5.508l14.606,14.598c-2.785,5.357-3.069,10.684-0.129,13.63l33.486,33.491
	c4.231,4.225,13.415,1.903,20.482-5.182C188.657,174.44,190.979,165.272,186.743,161.047z M39.258,110.036
	c-19.552-19.57-19.552-51.282,0-70.834c19.568-19.568,51.255-19.552,70.832,0c19.552,19.552,19.552,51.252,0,70.834
	C90.513,129.588,58.809,129.588,39.258,110.036z"/>
</svg>
